<?xml version="1.0" standalone="no"?>
<!DOCTYPE svg PUBLIC "-//W3C//DTD SVG 20010904//EN"
 "http://www.w3.org/TR/2001/REC-SVG-20010904/DTD/svg10.dtd">
<svg version="1.0" xmlns="http://www.w3.org/2000/svg"
 width="1008.000000pt" height="1008.000000pt" viewBox="0 0 1008.000000 1008.000000"
 preserveAspectRatio="xMidYMid meet">
<metadata>
Created by potrace 1.14, written by Peter Selinger 2001-2017
</metadata>
<g transform="translate(0.000000,1008.000000) scale(0.100000,-0.100000)"
fill="#000000" stroke="none">
<path d="M6313 9381 c-40 -25 -52 -48 -98 -191 -75 -233 -104 -424 -145 -945
-27 -343 -47 -2592 -30 -3343 5 -229 12 -552 15 -717 6 -305 30 -977 40 -1095
5 -65 21 -345 31 -540 10 -206 44 -777 54 -900 5 -69 12 -168 15 -220 25 -450
29 -488 50 -505 7 -6 14 -19 16 -30 4 -16 15 -21 64 -26 97 -11 244 1 255 20
4 9 11 59 15 111 11 167 35 472 45 575 5 55 12 143 15 195 3 52 9 147 15 210
25 308 31 394 45 640 51 903 60 1108 75 1620 5 195 15 531 21 745 13 443 6
1888 -10 2325 -6 151 -15 453 -21 670 -5 217 -12 415 -15 440 -3 25 -12 119
-20 210 -22 241 -73 515 -109 595 -8 17 -19 44 -26 61 -6 17 -29 48 -51 69
-38 38 -40 39 -126 43 -75 3 -93 0 -120 -17z m131 -244 c4 -19 3 -26 -4 -22
-5 3 -10 18 -10 32 0 32 5 28 14 -10z m21 -144 c3 -32 12 -85 20 -118 8 -33
21 -121 30 -195 9 -74 20 -160 25 -190 41 -225 85 -920 76 -1195 -3 -88 -8
-317 -11 -510 -3 -192 -8 -399 -11 -459 -5 -83 -3 -110 7 -117 24 -14 29 2 29
92 0 49 4 89 9 89 12 0 19 -138 9 -168 -10 -29 15 -102 39 -116 10 -6 29 -13
42 -16 16 -3 27 -14 32 -31 3 -14 9 -160 13 -324 3 -164 9 -301 12 -306 3 -5
-4 -9 -15 -9 -17 0 -21 -6 -21 -32 0 -18 -4 -44 -8 -58 -5 -19 -8 -7 -13 45
-6 74 -2 96 12 74 7 -11 9 -10 9 4 0 9 -5 17 -11 17 -8 0 -10 14 -6 40 3 25
-2 62 -13 99 -15 47 -17 71 -11 113 5 30 5 60 0 70 -5 9 -9 58 -9 109 0 72 3
89 13 81 9 -8 12 -4 12 14 0 14 -5 22 -12 20 -6 -3 -14 9 -17 29 -7 38 -32 63
-47 48 -9 -9 3 -236 17 -308 l6 -30 -21 33 c-11 17 -25 32 -30 32 -4 0 -22 3
-38 6 -24 5 -35 1 -52 -17 l-22 -23 3 24 c3 21 -2 24 -32 27 -132 14 -198 -1
-221 -49 -33 -68 -63 -175 -63 -225 -1 -28 -4 -46 -8 -40 -4 7 -5 -17 -2 -53
4 -36 3 -62 -1 -58 -4 4 -8 21 -7 38 0 16 -4 30 -9 30 -5 0 -9 -22 -9 -50 0
-37 4 -50 15 -50 8 0 12 -6 10 -13 -3 -7 3 -28 13 -48 25 -49 18 -64 -19 -42
-28 16 -34 26 -30 47 1 6 -1 32 -4 58 -6 40 -11 49 -32 54 -14 4 -22 12 -19
19 2 7 2 16 -1 19 -12 11 -16 72 -29 399 -7 176 -2 210 35 220 9 3 23 8 33 12
14 5 16 0 13 -45 -6 -84 -8 -278 -3 -287 3 -4 6 -52 7 -105 2 -91 1 -97 -19
-100 -21 -3 -21 -3 -1 -15 18 -11 22 -10 34 15 8 15 15 50 16 78 1 28 6 78 10
110 5 32 5 68 1 80 -5 11 -7 72 -5 135 2 68 -1 119 -8 127 -7 9 -2 31 16 75
14 34 28 71 30 82 3 12 5 7 6 -12 1 -39 18 -44 27 -8 3 13 3 109 0 212 -4 103
-8 328 -11 498 -3 210 -9 333 -19 380 -16 79 -15 234 2 310 6 28 14 118 17
200 3 83 9 166 12 185 3 19 5 42 4 51 -2 17 43 383 60 479 5 30 13 84 19 120
5 36 14 88 19 115 6 28 17 84 25 125 25 130 35 138 35 31 1 -52 -3 -108 -9
-125 -12 -38 -46 -259 -66 -426 -42 -358 -46 -448 -50 -1065 -3 -593 4 -882
24 -894 5 -3 14 -46 18 -96 l9 -90 5 140 c3 77 2 196 -2 265 -35 591 -28 1212
18 1578 8 62 14 121 15 130 0 12 3 9 10 -7 7 -17 6 -34 -1 -52 -6 -15 -10 -33
-9 -40 1 -8 -1 -34 -4 -59 -4 -25 -9 -79 -12 -120 -3 -41 -7 -84 -8 -95 -1
-11 2 -51 7 -88 6 -51 5 -75 -4 -92 -10 -19 -11 -43 -2 -112 7 -53 11 -237 10
-463 0 -211 5 -454 12 -555 7 -99 14 -233 17 -297 3 -65 8 -118 12 -118 12 0
23 367 17 522 -10 235 -18 639 -15 773 9 434 7 955 -3 949 -8 -5 -9 -1 -3 12
4 10 9 75 12 144 2 69 7 132 10 140 3 8 6 67 8 130 4 131 2 120 14 120 5 0 12
-26 16 -57z m-65 -568 c0 -19 -4 -35 -8 -35 -4 0 -6 16 -4 35 2 19 6 35 8 35
2 0 4 -16 4 -35z m237 -842 c-2 -16 -4 -3 -4 27 0 30 2 43 4 28 2 -16 2 -40 0
-55z m10 -130 c-2 -21 -4 -6 -4 32 0 39 2 55 4 38 2 -18 2 -50 0 -70z m3 -63
c0 -5 -4 -10 -10 -10 -5 0 -10 5 -10 10 0 6 5 10 10 10 6 0 10 -4 10 -10z
m-423 -1092 c-3 -7 -5 -2 -5 12 0 14 2 19 5 13 2 -7 2 -19 0 -25z m473 -578
c0 -5 -4 -10 -10 -10 -5 0 -10 5 -10 10 0 6 5 10 10 10 6 0 10 -4 10 -10z
m-299 -107 c-10 -17 -10 -16 -11 3 0 23 13 41 18 25 2 -6 -1 -18 -7 -28z m-21
-3 c0 -5 -9 -10 -20 -10 -11 0 -20 5 -20 10 0 6 9 10 20 10 11 0 20 -4 20 -10z
m60 -30 c0 -22 12 -25 40 -10 23 12 40 -12 40 -55 0 -22 -4 -26 -22 -23 -17 2
-22 9 -20 24 2 13 -4 24 -13 28 -13 4 -15 1 -10 -14 5 -14 2 -20 -9 -20 -9 0
-16 7 -16 16 0 9 -8 22 -17 29 -15 11 -15 15 -4 29 18 22 31 20 31 -4z m314
-327 c-18 -38 -33 -75 -34 -83 0 -9 -7 -26 -16 -38 -14 -21 -14 -22 6 -22 21
0 21 -2 16 -131 -4 -72 -9 -135 -12 -140 -15 -24 -19 0 -18 100 1 59 -2 114
-6 121 -6 10 -17 5 -46 -18 -21 -18 -45 -32 -54 -32 -9 0 -4 9 15 24 l30 24
-18 37 c-10 21 -15 40 -13 43 3 3 1 11 -5 19 -9 10 -8 13 5 13 9 0 16 4 16 9
0 5 13 14 30 21 16 7 51 37 77 66 26 30 50 54 54 54 3 0 -9 -30 -27 -67z
m-588 -23 c1 -8 2 -23 3 -33 0 -9 12 -23 26 -29 37 -17 34 -54 -7 -71 -18 -7
-44 -11 -58 -8 -23 5 -22 6 9 11 31 4 33 7 19 20 -13 13 -13 17 -1 29 12 11
12 15 -4 27 -15 12 -16 15 -3 23 12 9 12 11 -3 17 -9 3 -17 13 -17 21 0 19 35
12 36 -7z m46 -22 c-7 -7 -12 -8 -12 -2 0 14 12 26 19 19 2 -3 -1 -11 -7 -17z
m47 -19 c-9 -7 -4 -8 16 -4 27 6 28 5 13 -8 -20 -16 -23 -46 -9 -95 6 -21 6
-32 -1 -32 -5 0 -12 9 -15 20 -3 11 -10 20 -17 20 -7 0 -11 23 -11 64 0 60 1
63 19 54 15 -8 16 -12 5 -19z m272 -14 c-30 -14 -56 -23 -59 -20 -7 6 -5 8 38
28 19 9 44 17 55 17 11 0 -4 -11 -34 -25z m-94 -25 c12 0 13 -3 4 -14 -25 -30
-71 -22 -79 13 -2 10 5 12 29 7 17 -3 38 -6 46 -6z m-227 -100 c-8 -5 -22 -10
-31 -10 -9 0 -19 -9 -22 -20 -3 -11 -10 -20 -16 -20 -6 0 -8 7 -6 15 3 8 7 22
10 30 3 10 17 15 42 15 28 0 34 -3 23 -10z m204 -25 c-4 -15 -2 -25 5 -25 6 0
11 -4 11 -10 0 -20 -38 -10 -44 13 -10 37 -7 47 14 47 17 0 19 -5 14 -25z
m-244 -94 c0 -33 -3 -66 -6 -75 -13 -33 -24 -2 -24 65 0 55 3 69 15 69 12 0
15 -13 15 -59z m390 12 c0 -31 -15 -60 -23 -47 -7 13 4 74 14 74 5 0 9 -12 9
-27z m86 -38 c1 -25 -1 -45 -6 -45 -13 0 -16 17 -12 61 5 51 14 43 18 -16z
m-439 -267 c-2 -13 -4 -5 -4 17 -1 22 1 32 4 23 2 -10 2 -28 0 -40z m241 -38
l-4 -90 38 -10 c20 -6 58 -30 84 -53 25 -23 53 -42 62 -42 13 0 18 -12 20 -53
3 -50 2 -53 -17 -47 -26 8 -26 -3 -1 -35 24 -31 24 -42 4 -82 -13 -25 -14 -36
-5 -50 13 -21 15 -187 2 -207 -17 -26 -49 -1 -80 64 -36 75 -77 105 -141 105
-41 0 -100 -25 -100 -43 0 -5 13 1 29 12 20 14 45 21 76 21 42 0 52 -4 82 -37
22 -23 33 -43 30 -55 -3 -10 -1 -21 4 -24 5 -3 9 -15 9 -27 -1 -22 -1 -22 -18
-2 -9 11 -25 19 -36 17 -10 -2 -23 1 -29 7 -14 14 -84 14 -92 1 -3 -5 -15 -15
-27 -21 -18 -9 -19 -8 -13 10 3 12 2 21 -4 21 -5 0 -12 -8 -15 -17 -3 -10 -4
-1 -1 20 3 34 2 37 -21 37 -21 0 -24 -5 -24 -34 0 -19 -5 -38 -11 -42 -14 -8
-3 243 14 331 11 58 12 59 18 25 l6 -35 2 32 c0 17 6 44 11 58 7 20 7 32 -4
46 -13 19 -14 19 -20 -6 -4 -16 -13 -25 -26 -25 -23 0 -27 15 -5 24 8 3 15 16
15 30 0 16 7 25 21 29 12 3 18 10 14 16 -3 6 2 14 12 17 10 3 27 9 38 14 11 5
28 11 38 14 10 3 17 15 17 30 0 13 3 32 7 42 4 12 3 15 -5 10 -18 -11 -15 19
4 35 10 8 13 21 9 36 -4 19 -1 23 16 23 21 0 21 -3 17 -90z m52 -10 c0 -27 -4
-50 -8 -50 -4 0 -9 23 -10 50 -1 28 2 50 8 50 5 0 10 -22 10 -50z m108 -126
c25 -17 31 -47 7 -38 -8 4 -15 12 -15 20 0 8 -7 14 -15 14 -8 0 -15 5 -15 10
0 14 12 12 38 -6z m-355 -14 c-10 -11 -19 -20 -20 -20 -2 0 -3 9 -3 20 0 13 7
20 20 20 19 0 19 -1 3 -20z m-25 -92 c15 -15 16 -88 1 -88 -5 0 -7 4 -4 10 10
16 -15 52 -32 46 -9 -4 -21 1 -29 11 -13 18 -11 19 47 32 3 0 10 -4 17 -11z
m452 -7 c0 -6 -4 -13 -10 -16 -5 -3 -10 1 -10 9 0 9 5 16 10 16 6 0 10 -4 10
-9z m88 -45 c4 -20 -13 -36 -38 -36 -13 0 -13 1 0 10 12 8 12 10 -3 16 -9 3
-17 13 -17 21 0 22 54 13 58 -11z m-618 4 c0 -5 -7 -10 -15 -10 -18 0 -20 -17
-3 -22 6 -2 13 -37 16 -86 4 -75 3 -82 -14 -82 -11 0 -15 -4 -9 -8 21 -15 35
-64 35 -122 0 -57 -1 -60 -25 -60 -35 0 -40 3 -37 20 5 22 5 33 -3 179 l-8
133 22 -7 c12 -4 21 -2 21 4 0 6 -7 11 -15 11 -8 0 -15 6 -15 14 0 8 -6 17
-12 19 -10 4 -9 8 2 16 19 14 60 14 60 1z m615 -107 c-1 -38 -3 -128 -4 -200
l-1 -133 -34 0 c-29 0 -33 3 -29 20 6 22 19 26 25 8 2 -6 10 -8 16 -4 16 10 5
26 -18 26 -16 0 -18 7 -13 63 6 90 11 107 31 107 14 0 13 3 -5 18 -21 16 -22
23 -17 84 5 47 10 65 19 61 7 -2 16 0 20 6 12 20 13 12 10 -56z m-617 -305
c19 -19 14 -28 -16 -28 -35 0 -44 8 -29 26 15 17 30 17 45 2z m51 -213 c-4
-141 -19 -190 -19 -61 0 81 10 196 17 196 3 0 3 -61 2 -135z m469 -60 l-1 -50
-8 45 c-4 25 -7 65 -7 90 l0 45 9 -40 c4 -22 8 -62 7 -90z m-48 4 c0 -11 -4
-17 -10 -14 -5 3 -10 15 -10 26 0 11 5 17 10 14 6 -3 10 -15 10 -26z m40 -79
c0 -5 -5 -10 -11 -10 -5 0 -7 5 -4 10 3 6 8 10 11 10 2 0 4 -4 4 -10z m-424
-37 c-8 -8 -36 5 -36 17 0 7 6 7 21 0 11 -7 18 -14 15 -17z m267 10 c15 -3 27
-11 27 -19 0 -11 -98 -13 -272 -4 -5 0 -8 4 -8 10 0 6 30 7 78 3 65 -5 80 -3
91 11 10 12 22 15 35 11 12 -4 33 -9 49 -12z m105 -19 c-11 -11 -23 -14 -35
-9 -16 7 -15 9 7 15 40 12 45 11 28 -6z m-166 -96 c1 -35 1 -78 -1 -96 -1 -24
1 -32 10 -27 6 4 15 2 19 -5 4 -7 7 2 7 21 -3 88 4 159 14 159 8 0 9 -210 6
-736 -5 -642 -4 -740 10 -772 9 -21 17 -83 20 -149 5 -101 4 -113 -10 -107
-22 8 -36 -24 -46 -108 -5 -40 -9 -65 -10 -55 0 10 -6 17 -13 15 -23 -8 -19
-27 16 -62 19 -20 31 -36 28 -36 -4 0 0 -5 8 -10 12 -7 10 -9 -8 -7 -13 1 -22
8 -22 18 0 10 -9 21 -20 24 -11 3 -20 13 -20 22 0 8 -6 13 -12 11 -7 -3 -13
-15 -13 -28 0 -36 -22 -35 -28 2 -4 26 0 37 16 50 20 16 21 17 4 36 -9 10 -17
24 -17 31 0 7 -4 9 -10 6 -5 -3 -7 -19 -3 -35 3 -18 1 -30 -5 -30 -6 0 -14 28
-19 62 -12 92 -30 85 -38 -14 -9 -107 -5 -134 18 -130 23 4 22 -10 -3 -26 -21
-13 -27 -56 -10 -67 5 -3 7 -20 4 -38 -16 -95 -26 -138 -31 -133 -9 9 -3 562
7 660 7 70 14 94 31 112 13 13 30 23 38 22 12 -2 18 11 24 57 4 33 12 85 17
115 5 30 10 179 10 332 0 216 -2 277 -12 280 -11 4 -11 9 0 29 9 17 14 106 16
319 5 373 4 350 16 350 6 0 11 -28 12 -62z m205 -50 c-2 -18 -4 -4 -4 32 0 36
2 50 4 33 2 -18 2 -48 0 -65z m-277 25 c0 -17 -4 -35 -10 -38 -6 -4 -10 14
-10 47 0 38 3 49 10 38 5 -8 10 -29 10 -47z m100 26 c0 -5 -4 -9 -10 -9 -5 0
-10 7 -10 16 0 8 5 12 10 9 6 -3 10 -10 10 -16z m-73 -46 c-3 -10 -5 -2 -5 17
0 19 2 27 5 18 2 -10 2 -26 0 -35z m250 -305 c-1 -46 -3 -11 -3 77 0 88 2 125
3 83 2 -42 2 -114 0 -160z m-440 -441 c-1 -122 -2 -22 -2 223 0 245 1 345 2
222 2 -122 2 -322 0 -445z m150 496 c-2 -32 -3 -8 -3 52 0 61 1 87 3 58 2 -29
2 -78 0 -110z m10 -165 c-3 -8 -6 -5 -6 6 -1 11 2 17 5 13 3 -3 4 -12 1 -19z
m-10 -160 c-3 -7 -5 -2 -5 12 0 14 2 19 5 13 2 -7 2 -19 0 -25z m-149 -575
l-1 -148 -7 110 c-6 101 -3 185 6 185 2 0 3 -66 2 -147z m-11 -290 c-2 -16 -4
-3 -4 27 0 30 2 43 4 28 2 -16 2 -40 0 -55z m0 -130 c-2 -21 -4 -6 -4 32 0 39
2 55 4 38 2 -18 2 -50 0 -70z m163 -393 c0 -11 -2 -20 -4 -20 -2 0 -11 -3 -19
-6 -15 -5 -31 21 -21 37 11 18 44 10 44 -11z m80 10 c0 -5 -4 -10 -10 -10 -5
0 -10 5 -10 10 0 6 5 10 10 10 6 0 10 -4 10 -10z m54 -5 c3 -9 -3 -19 -16 -26
-12 -6 -16 -14 -10 -18 16 -9 3 -101 -15 -101 -7 0 -17 8 -20 18 -4 9 -14 23
-22 30 -12 10 -13 15 -3 18 18 8 15 22 -8 29 -32 10 -23 25 14 25 25 0 35 5
39 20 6 23 32 27 41 5z m6 -165 c0 -5 -2 -10 -4 -10 -3 0 -8 5 -11 10 -3 6 -1
10 4 10 6 0 11 -4 11 -10z m-120 -19 c0 -5 15 -9 33 -8 78 1 97 -3 97 -20 0
-10 -5 -25 -10 -33 -9 -13 -12 -13 -24 3 -8 11 -27 17 -52 17 -40 1 -74 18
-74 39 0 6 7 11 15 11 8 0 15 -4 15 -9z m-70 -98 c16 -37 18 -48 8 -55 -7 -4
-19 -6 -25 -3 -7 2 -13 3 -13 1 0 -3 -3 -11 -6 -20 -4 -10 -1 -16 9 -16 8 0
17 -11 19 -24 4 -17 1 -23 -9 -19 -15 6 -17 -9 -3 -23 8 -8 6 -15 -5 -24 -8
-7 -17 -11 -20 -8 -2 2 -6 53 -7 113 -4 147 11 170 52 78z m50 -47 c0 -3 -4
-8 -10 -11 -5 -3 -10 -1 -10 4 0 6 5 11 10 11 6 0 10 -2 10 -4z m20 -36 c0 -5
-2 -10 -4 -10 -3 0 -8 5 -11 10 -3 6 -1 10 4 10 6 0 11 -4 11 -10z m-26 -22
c8 -33 8 -38 -7 -38 -16 0 -40 38 -32 50 11 18 33 10 39 -12z m130 13 c7 -10
-22 -37 -30 -28 -9 8 3 37 15 37 5 0 12 -4 15 -9z"/>
<path d="M6440 8674 c0 -68 8 -170 19 -239 10 -66 22 -169 26 -230 8 -126 10
-147 24 -305 6 -63 11 -160 12 -215 1 -65 4 -88 8 -65 l7 35 5 -32 c3 -18 1
-37 -4 -42 -7 -7 -6 -43 1 -105 16 -125 15 -157 -1 -150 -10 3 -12 -18 -9
-101 3 -69 1 -105 -6 -105 -25 0 -34 117 -37 470 -2 157 -8 328 -14 380 -6 52
-14 141 -18 197 -12 203 -18 88 -15 -274 2 -202 4 -395 5 -428 0 -33 0 -172
-2 -310 -5 -526 -1 -896 9 -890 6 3 10 51 10 107 0 95 14 168 32 168 8 0 10
-47 8 -212 -1 -82 1 -97 14 -92 15 6 27 112 14 121 -5 2 -8 11 -8 19 0 8 5 12
10 9 6 -4 10 12 10 42 0 26 5 86 10 133 5 47 12 277 16 513 6 400 5 427 -11
427 -15 0 -16 2 -4 16 10 12 13 47 11 133 -5 198 -22 404 -37 428 -8 11 -14
36 -13 55 2 97 -3 232 -12 298 -35 253 -50 353 -55 358 -3 3 -5 -48 -5 -114z
m80 -1585 c0 -11 -4 -17 -10 -14 -5 3 -10 13 -10 21 0 8 5 14 10 14 6 0 10 -9
10 -21z m0 -115 c0 -41 -4 -63 -10 -59 -6 4 -8 10 -5 15 3 5 1 19 -5 31 -9 15
-9 24 -1 32 6 6 11 19 11 29 0 10 2 18 5 18 3 0 5 -30 5 -66z m-9 -157 c-6 -6
-8 -29 -4 -55 4 -33 3 -43 -5 -38 -15 9 -15 51 1 118 11 50 12 51 15 19 2 -18
-1 -38 -7 -44z m-5 -225 c-13 -12 -17 8 -10 40 l9 33 3 -33 c2 -19 1 -36 -2
-40z"/>
<path d="M6441 8384 c0 -11 3 -14 6 -6 3 7 2 16 -1 19 -3 4 -6 -2 -5 -13z"/>
<path d="M6105 5530 c3 -5 11 -10 16 -10 6 0 7 5 4 10 -3 6 -11 10 -16 10 -6
0 -7 -4 -4 -10z"/>
<path d="M6340 4399 c0 -5 5 -7 10 -4 6 3 10 8 10 11 0 2 -4 4 -10 4 -5 0 -10
-5 -10 -11z"/>
<path d="M6270 4225 c0 -8 5 -15 10 -15 6 0 10 7 10 15 0 8 -4 15 -10 15 -5 0
-10 -7 -10 -15z"/>
<path d="M6260 4071 c0 -6 5 -13 10 -16 6 -3 10 1 10 9 0 9 -4 16 -10 16 -5 0
-10 -4 -10 -9z"/>
<path d="M6121 4054 c0 -11 3 -14 6 -6 3 7 2 16 -1 19 -3 4 -6 -2 -5 -13z"/>
<path d="M6442 3160 c0 -14 2 -19 5 -12 2 6 2 18 0 25 -3 6 -5 1 -5 -13z"/>
<path d="M6439 3045 c-3 -38 -3 -76 1 -84 11 -21 16 25 10 94 l-5 60 -6 -70z"/>
<path d="M6432 2415 c0 -16 2 -22 5 -12 2 9 2 23 0 30 -3 6 -5 -1 -5 -18z"/>
<path d="M6450 2268 c0 -16 5 -28 10 -28 13 0 13 20 0 40 -8 12 -10 9 -10 -12z"/>
<path d="M6441 2134 c0 -11 3 -14 6 -6 3 7 2 16 -1 19 -3 4 -6 -2 -5 -13z"/>
<path d="M6440 2046 c0 -8 5 -18 10 -21 6 -3 10 3 10 14 0 12 -4 21 -10 21 -5
0 -10 -6 -10 -14z"/>
<path d="M6340 1918 c0 -7 -3 -23 -6 -35 -4 -14 -2 -23 5 -23 6 0 11 14 11 31
0 24 4 30 15 25 8 -3 15 -1 15 4 0 6 -9 10 -20 10 -11 0 -20 -6 -20 -12z"/>
<path d="M6465 1920 c-3 -5 -1 -10 4 -10 6 0 11 5 11 10 0 6 -2 10 -4 10 -3 0
-8 -4 -11 -10z"/>
<path d="M6380 1865 c0 -8 5 -15 10 -15 6 0 10 7 10 15 0 8 -4 15 -10 15 -5 0
-10 -7 -10 -15z"/>
<path d="M6316 1804 c-9 -23 -7 -54 3 -54 5 0 7 9 4 20 -3 12 1 22 11 26 9 3
13 10 10 15 -8 14 -21 11 -28 -7z"/>
<path d="M6490 1806 c0 -9 5 -16 10 -16 6 0 10 4 10 9 0 6 -4 13 -10 16 -5 3
-10 -1 -10 -9z"/>
<path d="M6450 1800 c0 -5 4 -10 9 -10 6 0 13 5 16 10 3 6 -1 10 -9 10 -9 0
-16 -4 -16 -10z"/>
<path d="M3708 9367 c-25 -23 -25 -24 -31 -258 -9 -293 -12 -722 -10 -1359 1
-272 2 -811 3 -1198 l0 -703 53 3 52 3 3 475 c1 261 -2 741 -7 1066 -9 559 -2
1327 17 1788 5 108 3 174 -3 182 -20 24 -51 25 -77 1z"/>
<path d="M4983 9343 c-33 -36 -72 -108 -87 -163 -4 -14 -20 -59 -36 -100 -33
-88 -70 -276 -69 -346 l1 -49 10 40 c5 22 11 50 14 62 3 18 8 21 26 14 14 -5
22 -17 23 -32 0 -13 4 -24 8 -24 5 0 15 -11 22 -25 l13 -25 9 30 c4 17 8 134
8 262 0 127 3 229 8 226 4 -2 7 -61 7 -131 0 -70 7 -300 16 -512 12 -300 15
-611 12 -1405 l-3 -1019 58 -19 c57 -20 57 -20 108 2 29 11 58 21 66 21 13 0
14 176 9 1398 -4 768 -9 1432 -12 1475 -3 46 -2 77 4 77 5 0 12 -35 15 -77 3
-43 9 -112 13 -153 7 -65 7 -179 2 -260 -4 -55 4 -354 9 -342 2 6 9 10 13 7 5
-3 7 16 5 41 -2 26 1 56 6 66 7 13 7 29 1 48 -8 23 -6 37 14 76 33 66 31 114
-6 126 -11 3 -14 23 -11 98 2 64 -1 95 -9 100 -10 6 -10 16 0 44 10 30 14 35
26 25 8 -6 14 -20 14 -30 0 -11 4 -19 9 -19 5 0 11 -10 14 -22 3 -13 12 -50
21 -83 8 -33 16 -82 16 -110 1 -27 8 -81 15 -120 l14 -70 -4 70 c-3 39 -10
104 -15 145 -6 41 -15 109 -20 150 -5 41 -16 100 -25 130 -68 234 -109 325
-180 393 -65 62 -101 64 -152 10z m216 -217 c-5 -6 -9 10 -8 40 l1 49 8 -40
c5 -22 4 -44 -1 -49z"/>
<path d="M3600 9203 c-6 -16 -17 -44 -24 -63 -8 -19 -17 -69 -21 -110 -3 -41
-8 -764 -11 -1606 l-6 -1531 23 -6 c12 -3 26 -4 31 -1 4 3 6 449 2 992 -3 543
-5 1041 -5 1107 2 224 21 1180 26 1213 5 39 -2 41 -15 5z"/>
<path d="M3845 9063 c-13 -285 -5 -2942 9 -3138 2 -32 7 -40 22 -40 19 0 19
15 14 620 -9 1086 -5 2278 7 2443 12 147 11 156 -9 218 -12 35 -25 64 -29 64
-4 0 -10 -75 -14 -167z"/>
<path d="M3955 8798 c-6 -16 3 -2165 11 -2508 2 -80 3 -205 4 -277 0 -125 1
-133 19 -133 11 0 23 5 26 11 4 5 2 304 -4 662 -9 546 -23 1852 -21 2062 1 76
-24 207 -35 183z"/>
<path d="M3466 8733 c-21 -102 -27 -248 -31 -812 -3 -350 -8 -952 -11 -1338
-7 -737 -8 -721 33 -695 10 6 12 201 12 892 -1 487 -1 896 -2 910 0 14 2 260
5 548 2 287 4 522 2 522 -1 0 -5 -12 -8 -27z m-9 -265 c-3 -8 -6 -5 -6 6 -1
11 2 17 5 13 3 -3 4 -12 1 -19z"/>
<path d="M4870 8611 c0 -10 -7 -21 -15 -25 -9 -3 -15 0 -15 9 0 21 -19 28 -35
15 -19 -16 -19 -31 0 -24 19 8 75 -48 75 -74 0 -11 3 -29 7 -39 6 -16 8 -15
13 7 3 14 12 25 20 25 17 0 26 61 16 102 -8 30 -66 34 -66 4z"/>
<path d="M4890 8393 c0 -48 12 -103 21 -97 5 3 9 14 9 25 0 10 5 19 10 19 18
0 11 45 -10 63 -27 23 -30 22 -30 -10z"/>
<path d="M4914 8219 c3 -17 6 -46 7 -63 0 -25 2 -27 8 -11 10 26 2 105 -11
105 -6 0 -8 -13 -4 -31z"/>
<path d="M4917 8089 c-8 -30 3 -109 16 -109 5 0 7 9 4 20 -3 11 -1 22 4 25 9
6 1 65 -11 78 -4 5 -10 -2 -13 -14z"/>
<path d="M5430 7305 c0 -16 -4 -66 -7 -110 -10 -117 -7 -225 6 -238 8 -8 11
24 12 119 1 71 3 142 5 158 2 16 -1 45 -5 65 -9 36 -9 36 -11 6z"/>
<path d="M3353 7125 c0 -38 2 -53 4 -32 2 20 2 52 0 70 -2 17 -4 1 -4 -38z"/>
<path d="M4073 6870 c0 -41 2 -58 4 -37 2 20 2 54 0 75 -2 20 -4 3 -4 -38z"/>
<path d="M5430 6770 c0 -5 5 -10 10 -10 6 0 10 5 10 10 0 6 -4 10 -10 10 -5 0
-10 -4 -10 -10z"/>
<path d="M3343 6710 c0 -30 2 -43 4 -27 2 15 2 39 0 55 -2 15 -4 2 -4 -28z"/>
<path d="M4082 6665 c0 -16 2 -22 5 -12 2 9 2 23 0 30 -3 6 -5 -1 -5 -18z"/>
<path d="M3342 6580 c0 -19 2 -27 5 -17 2 9 2 25 0 35 -3 9 -5 1 -5 -18z"/>
<path d="M4083 6510 c0 -30 2 -43 4 -27 2 15 2 39 0 55 -2 15 -4 2 -4 -28z"/>
<path d="M4085 6104 c3 -169 7 -310 10 -312 3 -3 5 132 5 301 0 185 -4 308
-10 312 -6 4 -8 -106 -5 -301z"/>
<path d="M5442 6300 c0 -19 2 -27 5 -17 2 9 2 25 0 35 -3 9 -5 1 -5 -18z"/>
<path d="M3338 6140 c-12 -129 -10 -346 2 -334 7 7 9 85 8 215 -3 171 -4 190
-10 119z"/>
<path d="M4813 6121 c-70 -43 -100 -158 -107 -416 -7 -225 -1 -255 55 -268
l35 -8 2 -171 c2 -95 4 -173 6 -175 2 -2 10 -1 18 2 11 5 13 19 7 73 -4 37 -3
75 2 85 12 21 45 23 53 2 4 -10 -1 -15 -16 -15 -20 0 -21 -1 -3 -20 17 -19 17
-21 0 -40 -16 -18 -17 -20 -1 -20 22 0 36 -39 36 -100 0 -33 -5 -50 -15 -54
-20 -7 -19 -23 3 -28 10 -3 22 -23 31 -52 33 -114 178 -146 265 -59 20 20 39
48 42 62 12 55 15 60 31 54 11 -4 14 -2 11 8 -3 8 -11 13 -17 12 -12 -3 -14
40 -5 111 5 36 11 46 25 46 11 0 19 5 19 10 0 6 -6 10 -14 10 -19 0 -27 25
-13 39 30 30 47 5 47 -70 0 -37 4 -49 15 -49 11 0 15 12 15 53 0 28 -4 59 -9
66 -10 16 -75 20 -103 7 -16 -7 -18 -2 -18 40 0 59 9 96 21 88 5 -3 12 2 15
10 3 9 12 16 20 16 7 0 18 9 24 20 6 11 20 20 30 20 11 0 20 5 20 10 0 6 16
10 36 10 l36 0 -6 -45 c-8 -53 2 -104 15 -83 5 8 9 -15 9 -57 0 -49 -3 -65
-10 -55 -13 19 -12 26 -14 -250 l-1 -225 -30 0 -30 0 0 102 c0 56 -3 105 -7
109 -5 4 -8 1 -8 -7 0 -19 -43 -109 -52 -109 -5 0 -1 17 8 38 8 20 17 52 20
71 5 39 12 53 24 46 8 -5 21 56 13 65 -2 2 -8 -2 -13 -10 -7 -11 -10 -6 -10
18 0 60 -17 33 -22 -35 -13 -177 -132 -290 -276 -263 -48 8 -107 50 -137 98
-11 17 -26 29 -33 27 -8 -3 -12 3 -11 18 6 66 -2 127 -15 127 -8 0 -17 10 -19
23 -2 12 -4 -54 -3 -148 l1 -170 -27 -3 c-16 -2 -28 -9 -28 -15 1 -18 36 -57
52 -57 11 0 11 2 0 9 -16 10 16 21 61 21 16 0 27 5 27 14 0 22 49 27 60 5 6
-10 10 -130 10 -278 0 -144 3 -261 8 -261 4 0 36 5 72 11 36 5 86 7 112 4 41
-6 48 -10 48 -29 0 -12 -5 -27 -12 -34 -12 -12 -17 -111 -8 -142 3 -10 -2 -15
-15 -15 -14 0 -21 8 -23 25 -2 14 -9 32 -16 40 -7 8 -22 34 -32 57 -23 52 -32
54 -27 6 2 -23 15 -47 33 -67 29 -29 39 -56 21 -56 -5 0 -18 12 -29 27 -25 34
-42 27 -71 -31 -18 -38 -22 -56 -16 -91 7 -51 -13 -155 -32 -162 -7 -3 -13
-14 -13 -24 0 -10 -6 -19 -13 -19 -9 0 -12 -18 -12 -59 0 -49 4 -64 23 -81 25
-24 30 -39 5 -19 -41 34 -70 66 -78 84 -7 18 -8 19 -12 2 -5 -19 37 -109 66
-141 15 -16 16 -101 15 -960 -1 -517 -4 -1058 -7 -1201 -6 -253 -6 -261 16
-314 26 -64 56 -89 117 -97 37 -5 51 -2 79 18 20 13 38 36 43 53 4 17 9 588
11 1270 l2 1240 29 49 c16 26 32 62 35 79 6 26 14 33 48 43 23 7 52 23 65 36
l23 23 2 310 c1 269 0 305 -12 275 -9 -23 -11 -57 -8 -103 5 -62 4 -67 -12
-61 -16 6 -17 1 -11 -62 21 -226 25 -339 11 -353 -32 -32 -41 -7 -53 150 -7
85 -16 182 -19 217 -5 59 -4 64 16 69 46 12 15 33 -49 33 -74 0 -70 -15 -69
254 1 132 5 252 9 266 5 17 8 19 9 8 2 -31 21 -19 21 12 0 23 4 30 20 30 11 0
23 0 27 1 4 0 14 -19 23 -42 16 -39 36 -57 68 -58 6 -1 12 8 12 19 0 11 7 20
15 20 12 0 15 18 17 98 0 53 2 129 3 167 10 376 16 937 10 954 -18 57 -25 6
-25 -186 1 -213 -2 -227 -40 -220 -22 3 -28 65 -29 268 -1 177 -6 213 -42 280
-25 49 -25 89 0 89 19 0 71 -52 71 -71 0 -5 4 -9 10 -9 18 0 -22 67 -49 82
-29 17 -105 31 -114 21 -4 -3 -2 -12 3 -18 13 -16 -31 -46 -80 -56 -34 -6 -33
-7 13 -8 44 -1 56 -8 40 -25 -4 -4 -9 -19 -11 -34 -2 -14 -8 -33 -15 -40 -8
-10 -8 -15 1 -21 7 -4 8 -18 3 -42 -5 -21 -4 -44 1 -53 7 -12 5 -22 -3 -32
-10 -12 -10 -17 -1 -23 7 -4 10 -15 6 -24 -3 -10 -1 -17 5 -17 6 0 11 -7 11
-16 0 -12 -6 -15 -25 -10 -22 6 -25 3 -25 -23 0 -32 27 -91 48 -104 7 -5 9
-13 6 -19 -4 -6 0 -14 7 -19 27 -16 -4 -29 -46 -19 -26 6 -54 5 -80 -2 -53
-14 -138 -10 -186 9 -23 9 -50 12 -65 9 l-26 -7 7 58 c4 32 11 73 16 92 4 19
6 44 3 56 -3 12 3 46 13 76 14 43 16 64 8 103 -7 37 -6 51 3 54 7 2 12 16 12
31 0 15 9 36 20 46 17 15 18 20 6 29 -8 6 -16 20 -18 31 -4 27 -27 29 -65 6z
m57 -32 c0 -11 -9 -32 -20 -46 -41 -52 -53 -126 -59 -353 l-6 -215 -25 0 c-21
0 -25 6 -32 45 -11 63 -2 363 12 430 21 95 64 160 107 160 17 0 23 -6 23 -21z
m557 -726 c-2 -16 -4 -5 -4 22 0 28 2 40 4 28 2 -13 2 -35 0 -50z m-537 -563
c16 -23 18 -28 5 -24 -19 8 -46 54 -31 54 3 0 14 -13 26 -30z m105 -82 c14
-12 163 -10 187 3 28 15 31 8 13 -34 -11 -27 -15 -74 -15 -180 0 -131 -2 -147
-21 -171 -16 -20 -29 -26 -58 -26 -66 0 -74 19 -78 183 -1 78 -8 154 -14 169
-6 15 -27 37 -45 49 -19 11 -34 25 -34 30 0 9 47 -8 65 -23z m187 -810 c-9 -9
-15 -9 -24 0 -9 9 -7 12 12 12 19 0 21 -3 12 -12z m75 -130 c-3 -7 -5 -2 -5
12 0 14 2 19 5 13 2 -7 2 -19 0 -25z m-37 -30 c0 -8 5 -19 11 -25 6 -6 9 -17
7 -23 -5 -16 -32 25 -42 64 -6 26 -5 27 9 13 8 -9 15 -22 15 -29z m31 -111
c-8 -8 -11 -7 -11 4 0 20 13 34 18 19 3 -7 -1 -17 -7 -23z m-168 -194 c-13 -2
-35 -2 -50 0 -16 2 -5 4 22 4 28 0 40 -2 28 -4z"/>
<path d="M5060 4666 c0 -18 5 -26 18 -26 41 0 57 -57 25 -92 -15 -17 -15 -18
0 -18 10 0 17 -8 17 -19 0 -28 -19 -36 -35 -15 -12 18 -14 18 -20 2 -12 -30
-1 -53 25 -53 28 0 38 -29 20 -55 -9 -13 -12 -13 -21 3 -15 26 -29 20 -29 -13
0 -28 2 -30 40 -30 22 0 40 3 40 8 1 4 3 54 6 111 8 149 1 183 -39 201 -18 7
-35 15 -39 18 -5 2 -8 -8 -8 -22z"/>
<path d="M5068 6053 c7 -3 16 -2 19 1 4 3 -2 6 -13 5 -11 0 -14 -3 -6 -6z"/>
<path d="M5442 5960 c0 -19 2 -27 5 -17 2 9 2 25 0 35 -3 9 -5 1 -5 -18z"/>
<path d="M5410 5953 c0 -12 5 -25 10 -28 13 -8 13 15 0 35 -8 12 -10 11 -10
-7z"/>
<path d="M3463 5864 c-7 -3 -13 -10 -13 -15 0 -6 8 -6 19 1 30 16 69 12 155
-16 55 -17 82 -22 90 -14 7 7 1 10 -19 10 -17 0 -43 7 -59 15 -30 16 -152 29
-173 19z"/>
<path d="M3857 5862 c-10 -4 16 -8 57 -8 41 0 73 3 70 8 -6 10 -101 10 -127 0z"/>
<path d="M4080 5751 c0 -6 5 -13 10 -16 6 -3 10 1 10 9 0 9 -4 16 -10 16 -5 0
-10 -4 -10 -9z"/>
<path d="M5108 5578 c2 -10 8 -18 12 -18 5 0 16 -3 26 -7 16 -6 16 -4 -1 19
-22 29 -44 33 -37 6z"/>
<path d="M5004 5565 c1 -20 6 -25 26 -24 14 0 33 4 44 8 17 7 16 8 -7 24 -39
26 -65 22 -63 -8z"/>
<path d="M4710 5419 c0 -5 5 -7 10 -4 6 3 10 8 10 11 0 2 -4 4 -10 4 -5 0 -10
-5 -10 -11z"/>
<path d="M5326 5350 c4 -26 2 -45 -6 -55 -10 -12 -9 -15 4 -15 14 0 17 9 14
55 -2 30 -6 55 -11 55 -4 0 -4 -18 -1 -40z"/>
<path d="M3465 5240 c-10 -12 -25 -18 -32 -16 -7 3 -13 1 -13 -3 0 -5 6 -11
14 -14 11 -4 13 -27 9 -114 -6 -107 7 -450 15 -405 7 42 21 22 37 -54 21 -93
60 -148 129 -182 92 -46 185 -30 265 45 51 49 51 70 0 24 -59 -55 -149 -82
-149 -46 0 8 -4 15 -10 15 -5 0 -10 -7 -10 -15 0 -35 -87 -11 -138 38 -58 55
-69 88 -76 236 -6 131 -1 161 26 161 6 0 5 -7 -2 -15 -11 -13 -9 -19 8 -36 27
-25 32 -116 7 -125 -8 -4 -15 -10 -15 -15 0 -9 36 -49 45 -49 11 0 3 187 -9
220 -16 45 -48 52 -72 15 -13 -20 -15 -39 -11 -84 4 -51 -4 -95 -16 -81 -2 3
-1 106 2 229 5 166 9 225 19 229 13 4 17 62 4 62 -5 0 -17 -9 -27 -20z"/>
<path d="M4096 5251 c-4 -7 -5 -15 -2 -18 9 -9 19 4 14 18 -4 11 -6 11 -12 0z"/>
<path d="M3543 5238 c-13 -6 -23 -15 -23 -20 0 -10 14 -11 24 0 4 4 29 12 54
18 l47 12 -40 0 c-22 0 -50 -4 -62 -10z"/>
<path d="M3863 5243 c9 -2 25 -2 35 0 9 3 1 5 -18 5 -19 0 -27 -2 -17 -5z"/>
<path d="M3784 5225 c-15 -11 -16 -14 -3 -15 8 0 24 7 35 15 15 11 16 14 3 15
-8 0 -24 -7 -35 -15z"/>
<path d="M3328 5039 c-3 -206 2 -320 13 -264 7 34 2 445 -5 453 -3 2 -6 -83
-8 -189z"/>
<path d="M3957 5183 c-2 -21 0 -42 4 -47 5 -6 9 -48 9 -94 0 -46 5 -92 10
-103 10 -17 7 -19 -22 -20 -32 0 -32 -1 -9 -12 24 -11 24 -12 19 -137 -3 -69
-3 -113 -1 -97 3 19 10 27 24 27 23 0 26 25 3 34 -16 6 -16 37 1 36 14 0 24
432 10 442 -25 19 -43 7 -48 -29z"/>
<path d="M4030 5210 c0 -5 4 -10 9 -10 6 0 13 5 16 10 3 6 -1 10 -9 10 -9 0
-16 -4 -16 -10z"/>
<path d="M4081 5211 c-8 -5 -10 -14 -6 -21 6 -9 10 -8 17 4 12 21 7 28 -11 17z"/>
<path d="M4093 5085 c0 -27 2 -38 4 -22 2 15 2 37 0 50 -2 12 -4 0 -4 -28z"/>
<path d="M4722 5000 c0 -14 2 -19 5 -12 2 6 2 18 0 25 -3 6 -5 1 -5 -13z"/>
<path d="M3930 4870 c0 -5 7 -10 15 -10 8 0 15 5 15 10 0 6 -7 10 -15 10 -8 0
-15 -4 -15 -10z"/>
<path d="M4723 4680 l1 -175 5 140 c4 77 3 156 0 175 -4 19 -6 -44 -6 -140z"/>
<path d="M4965 4790 c-3 -5 1 -10 9 -10 9 0 16 5 16 10 0 6 -4 10 -9 10 -6 0
-13 -4 -16 -10z"/>
<path d="M5165 4790 c-3 -5 1 -10 9 -10 9 0 16 5 16 10 0 6 -4 10 -9 10 -6 0
-13 -4 -16 -10z"/>
<path d="M3905 4719 c-8 -12 14 -31 30 -26 6 2 10 10 10 18 0 17 -31 24 -40 8z"/>
<path d="M3982 4578 c-18 -51 -20 -70 -12 -103 5 -22 10 -151 10 -287 0 -146
4 -248 9 -248 5 0 17 -7 25 -16 15 -14 16 -6 17 93 2 403 0 476 -12 484 -8 5
-12 30 -10 73 1 36 1 66 -1 66 -3 0 -14 -28 -26 -62z"/>
<path d="M5423 4585 c0 -27 2 -38 4 -22 2 15 2 37 0 50 -2 12 -4 0 -4 -28z"/>
<path d="M3446 4605 c-3 -9 -6 -33 -6 -52 0 -29 -3 -34 -17 -31 -17 5 -18 -13
-16 -286 1 -160 2 -304 3 -319 l0 -28 30 28 29 28 2 328 c1 207 -2 332 -8 338
-7 7 -12 5 -17 -6z"/>
<path d="M3590 4591 c0 -5 -3 -16 -6 -25 -3 -9 -2 -16 4 -16 13 0 23 38 11 46
-5 3 -9 1 -9 -5z"/>
<path d="M3935 4590 c-3 -5 -2 -10 4 -10 5 0 13 5 16 10 3 6 2 10 -4 10 -5 0
-13 -4 -16 -10z"/>
<path d="M3870 4555 c0 -8 5 -15 10 -15 6 0 10 7 10 15 0 8 -4 15 -10 15 -5 0
-10 -7 -10 -15z"/>
<path d="M3642 4544 c10 -10 20 -16 22 -13 3 3 -5 11 -17 18 -21 13 -21 12 -5
-5z"/>
<path d="M3790 4540 c-8 -5 -11 -12 -7 -16 4 -4 15 0 24 9 18 18 8 23 -17 7z"/>
<path d="M3680 4531 c0 -12 29 -23 41 -15 5 3 7 10 4 15 -8 12 -45 12 -45 0z"/>
<path d="M3538 4221 l3 -276 27 0 27 0 1 251 1 251 -31 25 -32 25 4 -276z"/>
<path d="M3894 4452 c-5 -4 -19 -23 -31 -42 -20 -33 -21 -46 -16 -240 2 -113
6 -210 8 -216 2 -6 14 -10 27 -9 22 2 23 5 29 121 7 160 -3 396 -17 386z"/>
<path d="M3739 4364 c-11 -14 -11 -18 4 -29 21 -15 23 -55 2 -55 -9 0 -15 9
-15 21 0 18 -2 20 -15 9 -25 -21 -15 -54 17 -58 29 -3 45 -29 28 -46 -7 -7
-14 -4 -23 8 -12 16 -14 16 -26 2 -17 -21 -8 -44 20 -48 30 -4 48 -33 31 -50
-11 -11 -16 -9 -28 7 -13 17 -16 18 -24 5 -19 -29 -7 -54 26 -57 18 -1 37 3
42 10 6 7 13 63 16 125 3 62 8 117 11 122 4 6 3 19 0 30 -8 24 -47 27 -66 4z"/>
<path d="M4730 4185 c-9 -356 5 -487 26 -250 11 119 10 142 -1 151 -11 8 -15
46 -18 150 l-3 139 -4 -190z"/>
<path d="M3695 4350 c-3 -5 1 -10 9 -10 9 0 16 5 16 10 0 6 -4 10 -9 10 -6 0
-13 -4 -16 -10z"/>
<path d="M3660 4225 c0 -55 4 -84 10 -80 6 3 10 39 10 80 0 41 -4 77 -10 80
-6 4 -10 -25 -10 -80z"/>
<path d="M3822 4130 c0 -14 2 -19 5 -12 2 6 2 18 0 25 -3 6 -5 1 -5 -13z"/>
<path d="M4800 4120 c0 -5 7 -10 16 -10 18 0 16 -58 -11 -307 -14 -131 -18
-145 -40 -136 -9 3 -15 -1 -15 -9 0 -21 42 -40 80 -36 37 3 39 7 41 128 0 25
4 50 9 55 5 6 7 48 5 95 -1 47 1 118 4 158 l7 72 -48 0 c-26 0 -48 -4 -48 -10z"/>
<path d="M3660 4038 c0 -29 4 -58 8 -65 4 -6 32 -13 62 -14 l55 -3 3 41 3 42
-48 3 c-39 2 -50 7 -58 26 -16 36 -25 25 -25 -30z"/>
<path d="M3480 3885 c0 -8 -6 -15 -12 -15 -10 0 -9 -3 1 -9 10 -7 12 -30 8
-107 -10 -173 -17 -211 -41 -222 l-21 -11 22 0 c12 -1 23 -7 26 -13 3 -10 7
-10 17 -1 11 10 18 88 23 253 2 71 -4 140 -13 140 -5 0 -10 -7 -10 -15z"/>
<path d="M4770 3890 c0 -5 5 -10 10 -10 6 0 10 5 10 10 0 6 -4 10 -10 10 -5 0
-10 -4 -10 -10z"/>
<path d="M3953 3839 c7 -55 36 -322 37 -327 0 -1 10 -7 23 -13 16 -7 5 -8 -41
-4 -70 7 -81 -2 -66 -53 l8 -27 4 33 c3 31 6 33 30 27 15 -4 30 -12 35 -18 4
-7 7 -68 6 -137 -6 -294 4 -1312 12 -1260 19 125 32 474 36 938 2 300 8 492
14 492 5 0 9 5 9 10 0 6 -9 10 -20 10 -22 0 -28 25 -7 33 7 3 5 6 -5 6 -10 1
-18 4 -18 9 0 18 -30 255 -36 287 -11 60 -28 55 -21 -6z"/>
<path d="M4032 3820 c0 -14 2 -19 5 -12 2 6 2 18 0 25 -3 6 -5 1 -5 -13z"/>
<path d="M4041 3763 c-1 -17 4 -35 9 -38 11 -7 11 9 0 45 -8 24 -8 24 -9 -7z"/>
<path d="M3440 3669 c0 -5 5 -7 10 -4 6 3 10 8 10 11 0 2 -4 4 -10 4 -5 0 -10
-5 -10 -11z"/>
<path d="M3396 3483 c4 -10 9 -196 11 -414 1 -218 4 -407 7 -420 3 -13 15
-163 27 -334 11 -170 25 -317 30 -325 5 -9 6 297 2 721 l-6 737 23 12 c29 15
37 3 44 -65 3 -27 8 -513 11 -1080 5 -879 8 -1044 22 -1125 8 -52 15 -104 15
-115 -1 -42 10 -95 20 -95 7 0 8 364 5 1145 l-6 1146 -22 31 c-15 21 -25 57
-33 114 -9 79 -11 84 -30 77 -23 -8 -68 -7 -105 2 -20 5 -22 3 -15 -12z"/>
<path d="M4751 3414 c0 -11 3 -14 6 -6 3 7 2 16 -1 19 -3 4 -6 -2 -5 -13z"/>
<path d="M5244 3340 c-1 -67 7 -88 20 -54 7 19 -4 124 -13 124 -4 0 -7 -31 -7
-70z"/>
<path d="M5356 3390 c-12 -12 -16 -26 -12 -37 7 -17 8 -17 22 1 13 19 14 19
14 -6 0 -14 -7 -28 -15 -32 -17 -6 -20 -47 -4 -63 6 -6 14 -26 18 -45 7 -27 9
-18 15 52 12 136 2 170 -38 130z"/>
<path d="M4918 3383 c-3 -5 -1 -42 2 -83 l7 -75 1 83 c2 75 -1 94 -10 75z"/>
<path d="M4756 3283 c6 -80 14 -102 37 -103 4 0 7 16 7 36 0 31 -2 35 -15 24
-13 -11 -15 -4 -15 53 0 36 -5 69 -11 72 -7 5 -8 -20 -3 -82z"/>
<path d="M4810 3360 c0 -5 7 -7 15 -4 8 4 15 8 15 10 0 2 -7 4 -15 4 -8 0 -15
-4 -15 -10z"/>
<path d="M5332 3305 c0 -16 2 -22 5 -12 2 9 2 23 0 30 -3 6 -5 -1 -5 -18z"/>
<path d="M3881 3251 l-23 -18 1 -1129 c1 -620 3 -1130 5 -1131 6 -6 46 156 62
251 12 70 14 104 7 115 -11 17 -11 53 -12 1274 -1 361 -4 657 -8 657 -5 0 -19
-9 -32 -19z"/>
<path d="M3665 3124 c3 -54 7 -569 7 -1144 0 -575 2 -1057 5 -1072 4 -22 12
-30 44 -38 41 -11 100 -2 106 17 3 7 -4 9 -18 6 -21 -6 -21 -4 -19 78 2 46 2
566 1 1155 l-1 1071 -42 7 c-24 3 -54 9 -67 12 l-23 7 7 -99z"/>
<path d="M5372 3100 c0 -14 2 -19 5 -12 2 6 2 18 0 25 -3 6 -5 1 -5 -13z"/>
<path d="M4772 3070 c0 -14 2 -19 5 -12 2 6 2 18 0 25 -3 6 -5 1 -5 -13z"/>
<path d="M3993 1795 c0 -22 2 -30 4 -17 2 12 2 30 0 40 -3 9 -5 -1 -4 -23z"/>
<path d="M3952 1470 c0 -19 2 -27 5 -17 2 9 2 25 0 35 -3 9 -5 1 -5 -18z"/>
<path d="M4922 1145 c0 -16 2 -22 5 -12 2 9 2 23 0 30 -3 6 -5 -1 -5 -18z"/>
</g>
</svg>
